# xmcd
#
# Track frame offsets: 
#        150
#        12400
#        34412
#        50408
#        63768
#        76386
#        92718
#        110080
#        127150
#        141107
#        152788
#        170955
#        184327
#        206712
#        227251
#        242891
#        258931
#        273281
#        290978
#        304576
#
# Disc length: 4187 seconds
#
# Revision: 0
# Processed by: cddbd v1.5.2PL0 Copyright (c) Steve Scherf et al.
# Submitted via: ExactAudioCopy v0.95b4
#
DISCID=2b105914
DTITLE=Various Artist - Siempre Te Amare Vol.4
DYEAR=2000
DGENRE=Ballad
TTITLE0=Lorenzo Santamaría - Te quiero a ti
TTITLE1=Ismael - Es cuestión de piel
TTITLE2=Buddy Richard - Tu cariño se me va
TTITLE3=Los Angeles Negros - Porque te quiero tanto
TTITLE4=Charles Aznavour - Y por tanto
TTITLE5=Elza Baeza - Junto al mar
TTITLE6=Santa Barbara - Charlie
TTITLE7=Top 10 - Donde estan tus ojos negros
TTITLE8=Elio Roca - Yo quiero dibujarte
TTITLE9=Luis Grillo - A el
TTITLE10=Heleno - No son palabritas
TTITLE11=Palito Ortega - Vestida de novia
TTITLE12=Ana y Johnny - Yo también necesito amor
TTITLE13=Mari Trini - Te amaré, te amo y te querré
TTITLE14=Jeanette - Porque te vas
TTITLE15=José Augusto - La verdad siempre aparece
TTITLE16=Junior - Si no te amase
TTITLE17=Lolita - Amor amor
TTITLE18=Silvana Di Lorenzo - Locuras tengo de ti
TTITLE19=Roberto Jordán - Amor de estudiante
EXTD=
EXTT0=
EXTT1=
EXTT2=
EXTT3=
EXTT4=
EXTT5=
EXTT6=
EXTT7=
EXTT8=
EXTT9=
EXTT10=
EXTT11=
EXTT12=
EXTT13=
EXTT14=
EXTT15=
EXTT16=
EXTT17=
EXTT18=
EXTT19=
PLAYORDER=
